<svg width="55" height="82" viewBox="0 0 55 82" fill="none" xmlns="http://www.w3.org/2000/svg">
<path d="M13.6433 81.8601C21.1745 81.8601 27.2867 75.7478 27.2867 68.2167V54.5734H13.6433C6.11222 54.5734 0 60.6856 0 68.2167C0 75.7478 6.11222 81.8601 13.6433 81.8601Z" fill="#0ACF83"/>
<path d="M0 40.9301C0 33.399 6.11222 27.2867 13.6433 27.2867H27.2867V54.5734H13.6433C6.11222 54.5734 0 48.4612 0 40.9301Z" fill="#A259FF"/>
<path d="M0 13.6433C0 6.11222 6.11222 0 13.6433 0H27.2867V27.2867H13.6433C6.11222 27.2867 0 21.1745 0 13.6433Z" fill="#F24E1E"/>
<path d="M27.2867 0H40.93C48.4612 0 54.5734 6.11222 54.5734 13.6433C54.5734 21.1745 48.4612 27.2867 40.93 27.2867H27.2867V0Z" fill="#FF7262"/>
<path d="M54.5734 40.9301C54.5734 48.4612 48.4612 54.5734 40.93 54.5734C33.3989 54.5734 27.2867 48.4612 27.2867 40.9301C27.2867 33.399 33.3989 27.2867 40.93 27.2867C48.4612 27.2867 54.5734 33.399 54.5734 40.9301Z" fill="#1ABCFE"/>
</svg>
